<?xml version="1.0" encoding="utf-8"?>

<svg version="1.1" id="Layer_1" xmlns="http://www.w3.org/2000/svg" xmlns:xlink="http://www.w3.org/1999/xlink" x="0px" y="0px"
	 viewBox="0 0 621.9 202.3" style="enable-background:new 0 0 621.9 202.3;" xml:space="preserve">
<style type="text/css">
	.st0{fill:#1D1D1B;}
</style>
<g>
	<path class="st0" d="M94.6,42.7H95c0.4,0,0.7-0.4,0.7-0.7c0-0.4-0.4-0.7-0.7-0.7h-0.4c-0.4,0-0.7,0.4-0.7,0.7
		C93.8,42.3,94.2,42.7,94.6,42.7z M91.1,41.2c-0.4,0-0.7,0.3-0.7,0.7c0,0.5,0.4,0.7,0.7,0.7h0.2c0.4,0,0.7-0.4,0.7-0.7
		c0-0.4-0.4-0.7-0.7-0.7H91.1z M109.2,42.7h0.4c0.4,0,0.7-0.4,0.7-0.7c0-0.4-0.4-0.7-0.7-0.7h-0.4c-0.4,0-0.7,0.4-0.7,0.7
		C108.4,42.3,108.7,42.7,109.2,42.7z M116.4,42.7h0.4c0.4,0,0.7-0.4,0.7-0.7c0-0.4-0.4-0.7-0.7-0.7h-0.4c-0.4,0-0.7,0.4-0.7,0.7
		S116.1,42.7,116.4,42.7z M112.8,42.7h0.4c0.4,0,0.7-0.4,0.7-0.7c0-0.4-0.4-0.7-0.7-0.7h-0.4c-0.4,0-0.7,0.4-0.7,0.7
		C112,42.3,112.4,42.7,112.8,42.7z M91.3,162.1h-0.2c-0.4,0-0.7,0.4-0.7,0.7c0,0.5,0.4,0.7,0.7,0.7h0.2c0.4,0,0.7-0.3,0.7-0.7
		c0-0.2,0-0.3-0.1-0.5C91.8,162.2,91.6,162.1,91.3,162.1z M198.3,101.8L198.3,101.8L198.3,101.8L172,75.5V38.4
		c0-0.4-0.4-0.7-0.7-0.7h-37l-26.2-26.2c-0.2-0.1-0.4-0.2-0.6-0.2s-0.4,0.1-0.5,0.2L80.7,37.7H43.6c-0.4,0-0.7,0.3-0.7,0.7v37.1
		l-26.2,26.2c-0.3,0.4-0.3,0.8,0,1.1L42.9,129v37.1c0,0.4,0.4,0.7,0.7,0.7h37.1l26.2,26.2l0,0l0,0c0.1,0.1,0.3,0.1,0.5,0.1
		c0.1,0,0.3,0,0.5-0.2l26.2-26.2h37.2c0.4,0,0.7-0.3,0.7-0.7v-37.1l26.2-26.2C198.5,102.6,198.5,102.2,198.3,101.8z M42.9,116.8
		l-14.5-14.5l14.5-14.5V116.8z M42.9,85.8l-16,16l0,0l0,0c-0.1,0.1-0.1,0.3-0.1,0.5c0,0.1,0,0.3,0.2,0.5l16,16v3l-19.5-19.5L43,82.8
		L42.9,85.8L42.9,85.8z M43,80.7l-21.1,21.1c-0.3,0.4-0.3,0.8,0,1.1l21,21.1v3.1l-24.6-24.8L43,77.6V80.7z M107.5,13.1L163.4,69v3.1
		L108,16.7c-0.2-0.1-0.4-0.2-0.6-0.2s-0.4,0.1-0.5,0.2L51.6,72v-3.1L107.5,13.1z M164.1,159.6c0.4,0,0.7-0.3,0.7-0.7V45.7
		c0-0.4-0.4-0.7-0.7-0.7h-22.6l-2.3-2.3h27.9V162h-27.9l2.3-2.3L164.1,159.6L164.1,159.6z M142.9,158.2l20.4-20.4v20.4H142.9z
		 M50.9,159.7h22.6l2.3,2.3h-28V42.7h27.9L73.5,45H50.9c-0.4,0-0.7,0.3-0.7,0.7v113.2C50.2,159.3,50.5,159.7,50.9,159.7z
		 M51.6,158.2v-20.4L72,158.2H51.6z M72,46.4L51.6,66.9V46.4H72z M51.6,74.1l55.9-55.9l56,55.9v3l-55.4-55.4
		c-0.2-0.1-0.4-0.2-0.6-0.2s-0.4,0.1-0.5,0.2L51.6,77.1V74.1z M91.5,165.4l-5.8-5.8h43.4l-5.8,5.8H91.5z M122,166.9l-14.5,14.5
		L93,166.9H122z M84.3,158.2l-32.7-32.7V79.1l32.7-32.7h46.3l32.7,32.7c0,0,0,0,0,0.1v46.3l-32.8,32.7H84.3z M123.4,39.2l5.8,5.8
		H85.8l5.8-5.8H123.4z M93,37.7l14.5-14.5L122,37.7H93z M51.6,127.6L107,183l0,0l0,0c0.1,0.1,0.3,0.1,0.5,0.1c0.1,0,0.3,0,0.5-0.2
		l55.4-55.4v3l-55.9,55.9l-55.9-55.9C51.6,130.5,51.6,127.6,51.6,127.6z M163.3,46.4v20.4l-20.4-20.4H163.3z M44.4,165.4V39.2h34.8
		l-2,2H47.1c-0.4,0-0.7,0.3-0.7,0.7v120.7c0,0.4,0.4,0.7,0.7,0.7h30.1l2,2L44.4,165.4L44.4,165.4z M107.4,191.5l-55.9-55.9v-3.1
		l55.4,55.4l0,0l0,0c0.1,0.1,0.3,0.1,0.5,0.1c0.1,0,0.3,0,0.5-0.2l55.4-55.4v3.1L107.4,191.5z M170.6,165.4h-34.9l2-2h30.1
		c0.4,0,0.7-0.3,0.7-0.7V41.9c0-0.4-0.4-0.7-0.7-0.7h-30.1l-2-2h34.9V165.4L170.6,165.4z M172,87.8l14.5,14.5L172,116.8V87.8z
		 M172,118.8l16-16l0,0l0,0c0.1-0.1,0.1-0.3,0.1-0.5c0-0.1,0-0.3-0.2-0.5l-16-16v-3l19.5,19.5l-19.5,19.5L172,118.8L172,118.8z
		 M172,127v-3.1l21.1-21.1l0,0l0,0c0.1-0.1,0.1-0.3,0.1-0.5c0-0.1,0-0.3-0.2-0.5l-21.1-21.1v-3.1l24.7,24.7L172,127z M105.5,42.7
		h0.4c0.4,0,0.7-0.4,0.7-0.7c0-0.4-0.4-0.7-0.7-0.7h-0.4c-0.4,0-0.7,0.4-0.7,0.7S105.1,42.7,105.5,42.7z M101.9,42.7h0.4
		c0.4,0,0.7-0.4,0.7-0.7c0-0.4-0.4-0.7-0.7-0.7h-0.4c-0.4,0-0.7,0.4-0.7,0.7S101.4,42.7,101.9,42.7z M98.2,42.7h0.4
		c0.4,0,0.7-0.4,0.7-0.7c0-0.4-0.4-0.7-0.7-0.7h-0.4c-0.4,0-0.7,0.4-0.7,0.7S97.8,42.7,98.2,42.7z M102.2,162.1h-0.4
		c-0.4,0-0.7,0.4-0.7,0.7c0,0.5,0.4,0.7,0.7,0.7h0.4c0.4,0,0.7-0.3,0.7-0.7c0-0.2,0-0.3-0.1-0.5
		C102.7,162.2,102.5,162.1,102.2,162.1z M113.2,162.1h-0.4c-0.4,0-0.7,0.4-0.7,0.7c0,0.5,0.4,0.7,0.7,0.7h0.4c0.4,0,0.7-0.4,0.7-0.7
		C113.9,162.4,113.6,162.1,113.2,162.1z M109.6,162.1h-0.4c-0.4,0-0.7,0.4-0.7,0.7c0,0.5,0.4,0.7,0.7,0.7h0.4c0.4,0,0.7-0.4,0.7-0.7
		C110.3,162.4,109.9,162.1,109.6,162.1z M105.9,162.1h-0.4c-0.4,0-0.7,0.4-0.7,0.7c0,0.5,0.4,0.7,0.7,0.7h0.4c0.4,0,0.7-0.4,0.7-0.7
		C106.6,162.4,106.4,162.1,105.9,162.1z M98.6,162.1h-0.4c-0.4,0-0.7,0.4-0.7,0.7c0,0.5,0.4,0.7,0.7,0.7h0.4c0.4,0,0.7-0.4,0.7-0.7
		C99.4,162.4,99,162.1,98.6,162.1z M95,162.1h-0.4c-0.4,0-0.7,0.4-0.7,0.7c0,0.5,0.4,0.7,0.7,0.7H95c0.4,0,0.7-0.4,0.7-0.7
		C95.7,162.4,95.4,162.1,95,162.1z M123.7,42.7h0.2c0.4,0,0.7-0.4,0.7-0.7c0-0.4-0.4-0.7-0.7-0.7h-0.2c-0.4,0-0.7,0.4-0.7,0.7
		S123.3,42.7,123.7,42.7z M120.1,42.7h0.4c0.4,0,0.7-0.4,0.7-0.7c0-0.4-0.4-0.7-0.7-0.7h-0.4c-0.4,0-0.7,0.4-0.7,0.7
		S119.6,42.7,120.1,42.7z M123.9,163.5c0.4,0,0.7-0.3,0.7-0.7c0-0.2,0-0.3-0.1-0.5s-0.3-0.3-0.5-0.3h-0.2c-0.4,0-0.7,0.4-0.7,0.7
		c0,0.5,0.4,0.7,0.7,0.7h0.1V163.5z M116.8,162.1h-0.4c-0.4,0-0.7,0.4-0.7,0.7c0,0.5,0.4,0.7,0.7,0.7h0.4c0.4,0,0.7-0.4,0.7-0.7
		C117.6,162.4,117.2,162.1,116.8,162.1z M120.5,162.1h-0.4c-0.4,0-0.7,0.4-0.7,0.7c0,0.5,0.4,0.7,0.7,0.7h0.4c0.4,0,0.7-0.4,0.7-0.7
		C121.2,162.4,120.9,162.1,120.5,162.1z"/>
	<g>
		<path class="st0" d="M80.5,142.6c-0.8,0-2.1-0.3-2.1-2.3c0-1.1,0.6-1.7,1.7-1.7l3.2-0.2c3.2-0.4,4.7-1.8,4.7-4.1V70.4
			c0-2.4-1.5-3.7-4.7-4L80.1,66c-1.1-0.2-1.7-0.9-1.7-1.8c0-1.4,0.7-2.2,2.1-2.2l14.1,0.5h21.8c6,0,11,1.9,15,5.5c4,3.7,6,8,6,13
			c0,4.9-1.3,8.9-4,11.8c-2.2,2.5-4.8,4.3-7.7,5.4c4.2,0.9,8.1,3,11.4,6.4c3.8,3.8,5.7,8.8,5.7,14.9s-2.3,11.5-6.9,16
			c-4.6,4.5-10.3,6.8-17.1,6.8H93.2L80.5,142.6L80.5,142.6z M100,101.8c-1,0-1.4,0.5-1.4,1.5v28.9c0,2.7,1.3,4,4,4h11.1
			c5.2,0,9.6-1.6,13-4.8c3.4-3.2,5.1-7.4,5.1-12.5s-1.7-9.3-5.1-12.4s-7.7-4.7-13-4.7C113.7,101.8,100,101.8,100,101.8z M102.3,68.4
			c-0.9,0-1.8,0.3-2.5,1c-0.8,0.7-1.1,1.4-1.1,2V94c0,1.2,0.5,1.8,1.7,1.8h11.4c4.3,0,7.8-1.3,10.5-3.8s4.1-5.9,4.1-10.1
			s-1.3-7.5-4-9.9s-6.2-3.6-10.6-3.6H102.3z"/>
		<path class="st0" d="M80.5,62.5l14.1,0.4h21.7c5.8,0,10.7,1.8,14.6,5.4c3.9,3.6,5.8,7.8,5.8,12.6c0,4.8-1.3,8.6-3.8,11.4
			c-2.6,2.8-5.5,4.7-8.9,5.8v0.2c4.7,0.6,8.9,2.8,12.7,6.5c3.7,3.7,5.6,8.6,5.6,14.6s-2.2,11.2-6.7,15.6s-10.1,6.6-16.8,6.6H93.2
			l-12.7,0.5c-1.1,0-1.6-0.6-1.6-1.8c0-0.8,0.4-1.2,1.2-1.2l3.3-0.2c3.4-0.5,5.2-2,5.2-4.6V70.4c0-2.7-1.7-4.2-5.2-4.5l-3.3-0.3
			c-0.8-0.1-1.2-0.6-1.2-1.3C78.9,63,79.4,62.5,80.5,62.5 M100.4,96.3h11.4c4.4,0,8-1.3,10.9-3.9c2.8-2.6,4.2-6.1,4.2-10.5
			c0-4.3-1.4-7.8-4.2-10.3c-2.8-2.5-6.4-3.8-10.9-3.8h-9.5c-1.1,0-2,0.4-2.9,1.2c-0.9,0.8-1.3,1.6-1.3,2.4V94
			C98.1,95.6,98.9,96.3,100.4,96.3 M102.6,136.7h11.1c5.4,0,9.8-1.6,13.3-4.9c3.5-3.3,5.2-7.6,5.2-12.9s-1.7-9.5-5.2-12.8
			c-3.5-3.2-7.9-4.8-13.3-4.8H100c-1.3,0-1.9,0.7-1.9,2v28.9C98.1,135.2,99.6,136.7,102.6,136.7 M80.5,61.5L80.5,61.5
			c-1.6,0-2.6,1-2.6,2.7c0,1.2,0.8,2.1,2.1,2.3l0,0l0,0l3.3,0.3c3.8,0.3,4.3,2,4.3,3.5v63.9c0,1.3-0.4,3.1-4.3,3.6l-3.2,0.2
			c-1.4,0-2.2,0.9-2.2,2.2c0,1.8,1,2.8,2.6,2.8l12.7-0.5h25.6c6.9,0,12.8-2.3,17.5-6.9c4.7-4.6,7-10.1,7-16.3c0-6.2-2-11.4-5.9-15.3
			c-3.1-3.1-6.5-5.1-10.2-6.2c2.4-1.2,4.6-2.8,6.5-5c2.7-3,4.1-7.1,4.1-12.1c0-5.1-2.1-9.6-6.2-13.3c-4.1-3.8-9.2-5.7-15.3-5.7H94.5
			L80.5,61.5L80.5,61.5L80.5,61.5z M100.4,95.3c-0.9,0-1.2-0.3-1.2-1.2V71.5c0-0.5,0.3-1.1,1-1.7s1.4-0.9,2.2-0.9h9.4
			c4.2,0,7.7,1.2,10.2,3.5c2.6,2.3,3.8,5.5,3.8,9.6s-1.3,7.3-3.9,9.7c-2.6,2.4-6,3.7-10.2,3.7L100.4,95.3L100.4,95.3z M102.6,135.7
			c-2.5,0-3.5-1-3.5-3.5v-28.9c0-0.9,0.3-1,0.9-1h13.7c5.1,0,9.4,1.5,12.6,4.6c3.3,3.1,4.9,7,4.9,12s-1.7,9.1-4.9,12.2
			c-3.3,3.1-7.5,4.7-12.6,4.7L102.6,135.7L102.6,135.7z"/>
	</g>
	<g>
		<g>
			<path class="st0" d="M230,78.1c1.6,1.6,2.3,3.6,2.3,6.1s-0.9,4.7-2.8,6.5c-1.9,1.9-4.2,2.8-7,2.8h-10.7l-5.3,0.2
				c-0.4,0-0.7-0.3-0.7-0.8c0-0.3,0.2-0.5,0.5-0.5l1.4-0.1c1.4-0.2,2.2-0.8,2.2-1.9V63.7c0-1.1-0.7-1.8-2.2-1.9l-1.4-0.1
				c-0.3-0.1-0.5-0.3-0.5-0.6c0-0.5,0.2-0.7,0.7-0.7l5.9,0.2h9.1c2.4,0,4.5,0.8,6.1,2.3c1.6,1.5,2.4,3.3,2.4,5.3s-0.5,3.6-1.6,4.8
				c-1.1,1.2-2.3,2-3.7,2.4v0.1C226.7,75.6,228.5,76.5,230,78.1z M224.1,72.9c1.2-1.1,1.8-2.6,1.8-4.4s-0.6-3.3-1.7-4.3
				c-1.2-1-2.7-1.6-4.6-1.6h-4c-0.4,0-0.8,0.2-1.2,0.5s-0.5,0.7-0.5,1v9.5c0,0.6,0.3,0.9,0.9,0.9h4.7
				C221.4,74.5,222.9,74,224.1,72.9z M226,89.3c1.5-1.4,2.2-3.2,2.2-5.4c0-2.2-0.7-4-2.2-5.3s-3.3-2-5.6-2h-5.7
				c-0.5,0-0.8,0.3-0.8,0.8v12.1c0,1.3,0.6,1.9,1.9,1.9h4.7C222.7,91.4,224.5,90.7,226,89.3z"/>
		</g>
		<g>
			<path class="st0" d="M265.1,60c4.9,0,8.9,1.6,11.9,4.7c3,3.2,4.5,7.2,4.5,12.2s-1.5,9-4.6,12.3c-3.1,3.2-7,4.8-11.9,4.8
				s-8.8-1.6-11.9-4.8c-3-3.2-4.6-7.2-4.6-12.2c0-4.9,1.5-9,4.6-12.2C256.2,61.6,260.2,60,265.1,60z M274.4,67.4
				c-0.9-1.6-2.2-2.9-3.8-3.8c-1.6-0.9-3.5-1.4-5.6-1.4c-3.8,0-6.8,1.2-8.9,3.5c-2.1,2.3-3.1,5.5-3.1,9.5c0,4.2,0.9,7.9,2.8,11.2
				c0.9,1.6,2.2,2.9,3.8,3.9s3.5,1.5,5.6,1.5c3.7,0,6.6-1.2,8.7-3.7c2.1-2.4,3.1-5.7,3.1-9.9S276.2,70.5,274.4,67.4z"/>
		</g>
		<g>
			<path class="st0" d="M324.7,64.9c3,2.9,4.5,6.7,4.5,11.5s-1.5,8.8-4.6,12.1c-3.1,3.3-7,4.9-11.8,4.9h-8.1l-5.9,0.2
				c-0.4,0-0.7-0.2-0.7-0.6s0.2-0.6,0.5-0.6l1.4-0.1c0.6-0.1,1.1-0.3,1.6-0.6c0.4-0.3,0.6-0.8,0.6-1.3V63.7c0-1.1-0.7-1.8-2.2-1.9
				l-1.4-0.1c-0.3-0.1-0.5-0.3-0.5-0.6c0-0.4,0.2-0.7,0.7-0.7l5.9,0.2h8.1C317.7,60.6,321.7,62,324.7,64.9z M322,67.6
				c-0.9-1.5-2.2-2.7-3.8-3.6c-1.6-0.9-3.4-1.3-5.5-1.3h-4.2c-0.7,0-1.2,0.2-1.7,0.6c-0.4,0.4-0.6,0.9-0.6,1.6v24.2
				c0,0.7,0.2,1.2,0.6,1.6s1,0.6,1.7,0.6h4.5c3.6,0,6.5-1.2,8.7-3.7s3.2-5.7,3.2-9.6C324.8,74,323.9,70.6,322,67.6z"/>
		</g>
		<g>
			<path class="st0" d="M372,60.4c0.4,0,0.7,0.2,0.7,0.6c0,0.4-0.2,0.6-0.5,0.7l-1.4,0.1c-1,0.1-1.9,0.7-2.7,1.9l-9.2,14.7
				c-0.4,0.7-0.6,1.4-0.7,2.2v9.8c0,0.6,0.2,1,0.6,1.3s0.9,0.5,1.5,0.6l1.4,0.1c0.4,0,0.6,0.2,0.6,0.6c0,0.2-0.1,0.3-0.2,0.5
				s-0.3,0.2-0.4,0.2l-5.3-0.2l-4.7,0.2c-0.4,0-0.7-0.2-0.7-0.6s0.2-0.6,0.5-0.7l0.8-0.1c1.3-0.2,1.9-0.8,1.9-1.9v-9.2
				c0-0.6-0.1-1.1-0.4-1.6l-10.3-15.9c-0.8-1.2-1.7-1.8-2.7-1.9l-1.4-0.1c-0.3-0.1-0.5-0.3-0.5-0.7s0.2-0.6,0.7-0.6l5.6,0.1l5-0.1
				c0.5,0,0.7,0.2,0.7,0.6s-0.2,0.6-0.6,0.7l-0.9,0.1c-0.6,0.1-0.9,0.3-1.1,0.7s-0.1,0.8,0.1,1.1l8.2,13.5c0.1,0.2,0.3,0.3,0.4,0.3
				c0.2,0,0.3-0.1,0.4-0.2l8-13.5c0.2-0.3,0.3-0.7,0.1-1.1c-0.2-0.4-0.5-0.6-1.1-0.7l-0.9-0.1c-0.4-0.1-0.6-0.3-0.6-0.7
				c0.1-0.4,0.3-0.6,0.7-0.6l3.7,0.1L372,60.4z"/>
		</g>
	</g>
	<g>
		<g>
			<path class="st0" d="M209.8,140.9c-0.1,0.2-0.1,0.4-0.1,0.6c0,0.2,0.1,0.5,0.4,0.8c0.3,0.3,0.6,0.5,1,0.5l1,0.1
				c0.4,0.1,0.6,0.3,0.6,0.6c0,0.4-0.2,0.7-0.7,0.7l-4.1-0.2l-4.3,0.2c-0.4,0-0.7-0.2-0.7-0.6c0-0.4,0.2-0.6,0.5-0.6l0.9-0.1
				c1.3-0.2,2.3-0.8,2.7-1.9l12.1-29.8c0.1-0.4,0.5-0.6,1.1-0.6s1,0.2,1.2,0.6l12,29.8c0.4,1.2,1.3,1.8,2.7,1.9l1,0.1
				c0.1,0,0.2,0.1,0.3,0.2c0.1,0.1,0.1,0.3,0.1,0.4c0,0.5-0.2,0.7-0.7,0.7l-5.4-0.2l-4.8,0.2c-0.4,0-0.7-0.2-0.7-0.6
				c0-0.4,0.2-0.7,0.6-0.7l1.1-0.1c0.4,0,0.7-0.2,1-0.5s0.4-0.5,0.4-0.8s0-0.5-0.1-0.7l-2.8-7.2c-0.1-0.3-0.3-0.5-0.8-0.5h-12
				c-0.4,0-0.6,0.2-0.8,0.5L209.8,140.9z M214.1,131.1h10.5c0.3,0,0.5-0.2,0.3-0.6l-5.6-14.4l-5.6,14.5
				C213.7,131,213.8,131.1,214.1,131.1z"/>
		</g>
		<g>
			<path class="st0" d="M274.9,144h-17.6l-5.3,0.2c-0.4,0-0.7-0.2-0.7-0.6c0-0.4,0.2-0.6,0.5-0.6l1.4-0.1c0.6-0.1,1.1-0.3,1.6-0.6
				c0.4-0.3,0.6-0.8,0.6-1.3v-26.7c0-1.1-0.7-1.8-2.2-1.9l-1.4-0.1c-0.3,0-0.5-0.2-0.5-0.6s0.2-0.6,0.7-0.6l5.3,0.2H274
				c0.6,0,1.1,0.2,1.5,0.5c0.4,0.4,0.6,0.8,0.7,1.3l0.7,4.3c0.1,0.6-0.2,0.8-0.7,0.8s-0.9-0.3-1-0.8c-0.5-1.5-1.2-2.6-2.1-3.2
				s-2.2-0.9-3.9-0.9h-7.4c-0.7,0-1.2,0.2-1.7,0.6c-0.4,0.4-0.6,0.9-0.6,1.6v9.9c0,0.4,0.2,0.6,0.6,0.6h8.7c0.4,0,0.8-0.1,1-0.3
				c0.3-0.2,0.4-0.4,0.5-0.6s0.2-0.5,0.4-1l0.2-0.6c0.1-0.4,0.3-0.6,0.7-0.6s0.6,0.2,0.6,0.7l-0.2,4l0.2,3.8c0,0.4-0.2,0.6-0.6,0.7
				c-0.4,0-0.6-0.2-0.7-0.6l-0.1-0.8c-0.3-1.6-0.9-2.4-1.9-2.4h-8.8c-0.4,0-0.6,0.2-0.6,0.7v10.9c0,0.7,0.2,1.2,0.6,1.6
				c0.4,0.4,1,0.6,1.7,0.6h7.8c1.6,0,3-0.4,4.2-1.2s2-2,2.5-3.5c0.2-0.5,0.4-0.8,0.8-0.8s0.6,0.1,0.8,0.3c0.1,0.2,0.2,0.4,0.2,0.6
				l-0.8,4.9c-0.1,0.5-0.3,1-0.7,1.3C275.9,143.9,275.4,144,274.9,144z"/>
		</g>
		<g>
			<path class="st0" d="M316.9,135.5c0,2.9-1.1,5.2-3.3,6.7c-2.2,1.5-4.9,2.3-8,2.3c-3.2,0-5.7-0.4-7.8-1.1c-2-0.8-3-1.6-3-2.5v-5.5
				c0-0.7,0.3-1,0.8-1c0.4,0,0.7,0.3,0.8,0.9c0.8,2.4,1.9,4.2,3.2,5.4c1.3,1.2,3.1,1.8,5.5,1.8s4.3-0.5,5.7-1.6
				c1.5-1.1,2.2-2.5,2.2-4.4c0-2.1-1.2-3.8-3.5-5.2c-1-0.6-2.2-1.2-3.4-1.8c-1.3-0.6-2.5-1.2-3.8-1.9c-1.3-0.6-2.4-1.3-3.4-2.1
				c-2.3-1.7-3.5-3.8-3.5-6.4s1-4.6,3-6.2c2-1.5,4.3-2.3,7-2.3s5,0.3,6.9,1s2.8,1.4,2.8,2.2v4.8c0,0.6-0.2,0.9-0.7,0.9
				s-0.8-0.3-1-0.9c-0.7-2-1.5-3.5-2.6-4.5s-2.7-1.5-4.8-1.5s-3.8,0.5-5,1.5s-1.8,2.2-1.8,3.7s0.6,2.8,1.8,3.9
				c1.2,1.1,2.7,2,4.4,2.9c1.7,0.8,3.5,1.7,5.2,2.6s3.2,2,4.4,3.5C316.2,132.1,316.9,133.7,316.9,135.5z"/>
		</g>
		<g>
			<path class="st0" d="M348.5,114.6V141c0,0.6,0.2,1,0.6,1.3s0.9,0.5,1.5,0.6l1.4,0.1c0.4,0,0.6,0.2,0.6,0.6c0,0.2-0.1,0.3-0.2,0.5
				c-0.1,0.1-0.3,0.2-0.4,0.2l-5.3-0.2l-5.8,0.2c-0.2,0-0.3-0.1-0.4-0.2c-0.1-0.1-0.2-0.3-0.2-0.5c0-0.4,0.2-0.6,0.6-0.6l1.7-0.1
				c0.6-0.1,1.1-0.3,1.5-0.6s0.6-0.8,0.6-1.3v-26.4c0-0.8-0.4-1.3-1.2-1.3h-4c-1.5,0-2.7,0.4-3.6,1.2c-0.9,0.8-1.6,2.1-2.1,3.7
				c-0.2,0.5-0.4,0.7-0.8,0.7c-0.3,0-0.6-0.1-0.7-0.3c-0.2-0.2-0.2-0.4-0.2-0.6l0.4-6.1c0.1-0.6,0.4-0.9,1-0.9h26.1
				c0.7,0,1,0.4,1.1,1.1l0.5,5.8c0,0.3,0,0.5-0.2,0.6c-0.2,0.2-0.4,0.2-0.7,0.2c-0.3,0-0.6-0.2-0.8-0.7c-0.6-1.7-1.3-2.9-2.1-3.7
				c-0.9-0.8-2-1.2-3.6-1.2h-4C348.9,113.3,348.5,113.7,348.5,114.6z"/>
		</g>
		<g>
			<path class="st0" d="M409.6,143c0.3,0,0.5,0.2,0.5,0.6c0,0.4-0.2,0.6-0.7,0.6l-5.3-0.2l-4.6,0.2c-0.5,0-0.7-0.2-0.7-0.7
				c0-0.3,0.2-0.5,0.5-0.6l0.8-0.1c1.3-0.2,1.9-0.8,1.9-1.9v-11.7c0-0.6-0.3-0.9-0.8-0.9H384c-0.2,0-0.4,0.1-0.6,0.3
				s-0.2,0.4-0.2,0.6v11.7c0,1.1,0.6,1.8,1.9,1.9l0.8,0.1c0.4,0.1,0.6,0.3,0.6,0.6c0,0.2-0.1,0.3-0.2,0.5c-0.1,0.1-0.3,0.2-0.5,0.2
				l-4.7-0.2l-5.3,0.2c-0.4,0-0.7-0.2-0.7-0.6c0-0.4,0.2-0.6,0.5-0.6l1.4-0.1c0.6-0.1,1.1-0.3,1.6-0.6c0.4-0.3,0.6-0.8,0.6-1.3
				v-26.7c0-1.1-0.7-1.8-2.2-1.9l-1.4-0.1c-0.3,0-0.5-0.2-0.5-0.6s0.2-0.6,0.7-0.6l5.3,0.2l4.7-0.2c0.5,0,0.7,0.2,0.7,0.6
				s-0.2,0.7-0.6,0.7l-0.8,0.1c-1.3,0.2-1.9,0.8-1.9,1.9v11.1c0,0.6,0.3,0.9,0.9,0.9h17c0.6,0,0.9-0.3,0.9-0.8v-11.2
				c0-1-0.6-1.7-1.9-1.9l-0.8-0.1c-0.3-0.1-0.5-0.3-0.5-0.6c0-0.4,0.2-0.7,0.7-0.7l4.6,0.2l5.3-0.2c0.4,0,0.7,0.2,0.7,0.6
				s-0.2,0.6-0.5,0.6l-1.4,0.1c-1.4,0.1-2.1,0.8-2.1,1.9V141c0,1.2,0.7,1.8,2.1,1.9L409.6,143z"/>
		</g>
		<g>
			<path class="st0" d="M449.2,144h-17.6l-5.3,0.2c-0.4,0-0.7-0.2-0.7-0.6c0-0.4,0.2-0.6,0.5-0.6l1.4-0.1c0.6-0.1,1.1-0.3,1.6-0.6
				c0.4-0.3,0.6-0.8,0.6-1.3v-26.7c0-1.1-0.7-1.8-2.2-1.9l-1.4-0.1c-0.3,0-0.5-0.2-0.5-0.6s0.2-0.6,0.7-0.6l5.3,0.2h16.7
				c0.6,0,1.1,0.2,1.5,0.5c0.4,0.4,0.6,0.8,0.7,1.3l0.7,4.3c0.1,0.6-0.2,0.8-0.7,0.8s-0.9-0.3-1-0.8c-0.5-1.5-1.2-2.6-2.1-3.2
				s-2.2-0.9-3.9-0.9h-7.4c-0.7,0-1.2,0.2-1.7,0.6c-0.4,0.4-0.6,0.9-0.6,1.6v9.9c0,0.4,0.2,0.6,0.6,0.6h8.7c0.4,0,0.8-0.1,1-0.3
				c0.3-0.2,0.4-0.4,0.5-0.6s0.2-0.5,0.4-1l0.2-0.6c0.1-0.4,0.3-0.6,0.7-0.6s0.6,0.2,0.6,0.7l-0.2,4l0.2,3.8c0,0.4-0.2,0.6-0.6,0.7
				c-0.4,0-0.6-0.2-0.7-0.6l-0.1-0.8c-0.3-1.6-0.9-2.4-1.9-2.4h-8.8c-0.4,0-0.6,0.2-0.6,0.7v10.9c0,0.7,0.2,1.2,0.6,1.6
				c0.4,0.4,1,0.6,1.7,0.6h7.8c1.6,0,3-0.4,4.2-1.2s2-2,2.5-3.5c0.2-0.5,0.4-0.8,0.8-0.8s0.6,0.1,0.8,0.3c0.1,0.2,0.2,0.4,0.2,0.6
				l-0.8,4.9c-0.1,0.5-0.3,1-0.7,1.3C450.3,143.9,449.8,144,449.2,144z"/>
		</g>
		<g>
			<path class="st0" d="M483.3,114.6V141c0,0.6,0.2,1,0.6,1.3s0.9,0.5,1.5,0.6l1.4,0.1c0.4,0,0.6,0.2,0.6,0.6c0,0.2-0.1,0.3-0.2,0.5
				c-0.1,0.1-0.3,0.2-0.4,0.2l-5.3-0.2l-5.8,0.2c-0.2,0-0.3-0.1-0.4-0.2c-0.1-0.1-0.2-0.3-0.2-0.5c0-0.4,0.2-0.6,0.6-0.6l1.7-0.1
				c0.6-0.1,1.1-0.3,1.5-0.6s0.6-0.8,0.6-1.3v-26.4c0-0.8-0.4-1.3-1.2-1.3h-4c-1.5,0-2.7,0.4-3.6,1.2c-0.9,0.8-1.6,2.1-2.1,3.7
				c-0.2,0.5-0.4,0.7-0.8,0.7c-0.3,0-0.6-0.1-0.7-0.3c-0.2-0.2-0.2-0.4-0.2-0.6l0.4-6.1c0.1-0.6,0.4-0.9,1-0.9h26
				c0.7,0,1,0.4,1.1,1.1l0.5,5.8c0,0.3,0,0.5-0.2,0.6c-0.2,0.2-0.4,0.2-0.7,0.2c-0.3,0-0.6-0.2-0.8-0.7c-0.6-1.7-1.3-2.9-2.1-3.7
				c-0.9-0.8-2-1.2-3.6-1.2h-4C483.7,113.3,483.3,113.7,483.3,114.6z"/>
		</g>
		<g>
			<path class="st0" d="M511.5,144.2c-0.4,0-0.7-0.2-0.7-0.6c0-0.4,0.2-0.6,0.5-0.7l0.8-0.1c1.3-0.2,1.9-0.8,1.9-1.9v-26.7
				c0-1.1-0.7-1.8-2.2-1.9l-1.4-0.1c-0.3-0.1-0.5-0.3-0.5-0.6c0-0.4,0.2-0.7,0.7-0.7l5.3,0.2l4.7-0.2c0.5,0,0.7,0.2,0.7,0.6
				s-0.2,0.7-0.6,0.7l-0.8,0.1c-1.3,0.2-1.9,0.8-1.9,1.9v26.7c0,0.6,0.2,1,0.6,1.3c0.4,0.3,0.9,0.5,1.5,0.6l1.4,0.1
				c0.4,0,0.6,0.2,0.6,0.6c0,0.2-0.1,0.3-0.2,0.5c-0.1,0.1-0.3,0.2-0.4,0.2l-5.3-0.2L511.5,144.2z"/>
		</g>
		<g>
			<path class="st0" d="M565.9,119.2c0,0.2-0.1,0.4-0.2,0.6c-0.1,0.2-0.3,0.3-0.5,0.3c-0.5,0-0.9-0.3-1-0.9
				c-0.6-2.1-1.6-3.7-3.2-4.9c-1.5-1.2-3.4-1.8-5.5-1.8c-3.8,0-6.8,1.3-9.1,3.9c-2.2,2.6-3.4,5.9-3.4,10c0,4.1,1.2,7.7,3.6,10.8
				c2.4,3.2,5.3,4.8,8.9,4.8c2,0,3.6-0.2,4.6-0.6c1-0.4,1.7-0.7,2.1-0.8c0.4-0.2,0.8-0.4,1.4-0.8c0.6-0.4,0.9-0.6,0.9-0.6
				c0.6-0.3,1-0.4,1.2-0.2s0.3,0.5,0.3,0.7s-0.1,0.5-0.4,0.7c-1.1,1.2-2.2,2.1-3.3,2.7c-2,1.1-4.5,1.6-7.3,1.6
				c-4.9,0-8.9-1.6-11.9-4.8s-4.6-7.3-4.6-12.2c0-4.9,1.6-8.9,4.7-12.1c3.1-3.2,7.2-4.8,12.3-4.8c2.6,0,5,0.4,7.2,1.1
				c2.1,0.7,3.2,1.4,3.2,2.1V119.2z"/>
		</g>
		<g>
			<path class="st0" d="M605.5,135.5c0,2.9-1.1,5.2-3.3,6.7s-4.9,2.3-8,2.3c-3.2,0-5.7-0.4-7.8-1.1c-2-0.8-3-1.6-3-2.5v-5.5
				c0-0.7,0.3-1,0.8-1c0.4,0,0.7,0.3,0.8,0.9c0.8,2.4,1.9,4.2,3.2,5.4s3.1,1.8,5.5,1.8s4.3-0.5,5.7-1.6c1.5-1.1,2.2-2.5,2.2-4.4
				c0-2.1-1.2-3.8-3.5-5.2c-1-0.6-2.2-1.2-3.4-1.8c-1.3-0.6-2.5-1.2-3.8-1.9c-1.3-0.6-2.4-1.3-3.4-2.1c-2.3-1.7-3.5-3.8-3.5-6.4
				s1-4.6,3-6.2c2-1.5,4.3-2.3,7-2.3s5,0.3,6.9,1s2.8,1.4,2.8,2.2v4.8c0,0.6-0.2,0.9-0.7,0.9s-0.8-0.3-1-0.9c-0.7-2-1.5-3.5-2.6-4.5
				s-2.7-1.5-4.8-1.5s-3.8,0.5-5,1.5s-1.8,2.2-1.8,3.7s0.6,2.8,1.8,3.9s2.7,2,4.4,2.9c1.7,0.8,3.5,1.7,5.2,2.6s3.2,2,4.4,3.5
				C604.9,132.1,605.5,133.7,605.5,135.5z"/>
		</g>
	</g>
</g>
</svg>
